<svg xmlns="http://www.w3.org/2000/svg" fill="none" viewBox="0 0 395 109"><g clip-path="url(#a)"><mask id="b" width="1123" height="795" x="-612" y="-529" maskUnits="userSpaceOnUse" style="mask-type:luminance"><path fill="#fff" d="M-611.77-528.54H510.75v793.7H-611.77v-793.7Z"/></mask><g mask="url(#b)"><path fill="#003577" d="M297.33 74.68h-4.93v30.62h4.93V89.56h4.03v-3.45h-4.03V74.68ZM323 102.94h-9.69v-5.06h9.7v5.06Zm-.55-8h-13.82v8.31c0 1.54.74 2.61 2.9 2.61h13.25c2.17 0 2.91-1.07 2.91-2.6v-8.33h-5.24Zm-2.36-10.17h-3.92v4.39H303.8v3.47h28.7v-3.47h-12.42v-4.39Zm-43.8-8.8h-1.9v18.78c0 1.65.73 2.8 2.88 2.8h11.41v-3.52h-9.09V79.5h9.09v-3.52h-12.39Zm81.78 29.42h4.46V74.7h-4.46v30.7Zm-5.97-20h-2.67c.3-1.8.39-3.74.52-6.03l.1-1.23c.11-1.74-1.03-2.22-1.97-2.22l-12.33.05.02 3.46 8.97-.04c.02 1.87-.12 3.55-.4 5.1l-8.55.03.01 3.46 7.6-.03c-1.41 3.81-3.94 6.87-7.5 10.16l2.17 2.46c2.44-1.7 6.79-4.7 9.8-10.37.24-.45.45-.9.63-1.35h3.6v16.56h4.36V74.67h-4.36V85.4Zm22.7 9.93c-2.22 0-3.19-3.97-3.19-8.61 0-4.65.97-8.62 3.2-8.62 2.21 0 3.2 3.97 3.2 8.62 0 4.64-.99 8.6-3.2 8.6Zm12.26-20.65v10.72h-4c-.36-5.8-3.48-10.1-8.26-10.1-5.13 0-8.26 4.97-8.26 11.42 0 6.44 3.13 11.42 8.26 11.42 4.55 0 7.51-3.91 8.17-9.3h4.09v16.56h4.9V74.67h-4.9ZM252.6 84.78h9.77v4.68h-9.77v-4.68Zm-2.18 7.65h14.14c2.04 0 2.74-1.13 2.74-2.74V75.64h-4.93v5.69h-9.77v-5.7h-4.92V89.7c0 1.61.7 2.74 2.74 2.74Zm67.8-11.26c1.93 2.47 6.4 5.07 10.42 6.25l1.7-2.15c-6.45-3-9.38-6.71-9.38-10.59H315.5c0 3.88-2.93 7.6-9.38 10.6l1.7 2.14c4.02-1.18 8.48-3.78 10.4-6.25ZM260.05 94.3h-4.92v5.9h-11.26v3.47h27.28v-3.46h-11.1v-5.9Zm-28.43-6.36h-4.41v12.27h-3.01V87.93h-4.42v12.27h-5.97v3.46h27.28v-3.46h-9.47V87.93Zm2.49 8.91h2.88a196.87 196.87 0 0 0 2.3-17.1c.24-2.5.25-3.81-2-3.81h-20.53v3.46h17.35v17.45Z"/></g><mask id="c" width="1123" height="795" x="-612" y="-529" maskUnits="userSpaceOnUse" style="mask-type:luminance"><path fill="#fff" d="M-611.77-528.54H510.75v793.7H-611.77v-793.7Z"/></mask><g mask="url(#c)"><path fill="#003577" d="M95.24 67.12c-5.04 0-9.48 1.64-12.48 4.7-3.43 3.4-5.32 8.73-5.32 15.01 0 6.29 1.89 11.62 5.32 15 3 3.08 7.44 4.76 12.48 4.76 5.05 0 9.54-1.68 12.54-4.75 3.37-3.4 5.26-8.72 5.26-15 0-6.29-1.89-11.62-5.26-15.01-3-3.07-7.5-4.7-12.54-4.7Zm7.23 30.6a9 9 0 0 1-7.23 3.3 8.88 8.88 0 0 1-7.17-3.3c-1.84-2.28-2.81-6.08-2.81-10.89 0-4.8.97-8.55 2.81-10.9 1.6-2.09 4.25-3.23 7.17-3.23 2.98 0 5.58 1.14 7.23 3.24 1.84 2.34 2.8 6.1 2.8 10.9 0 4.8-.96 8.6-2.8 10.88Z"/></g><mask id="d" width="1123" height="795" x="-612" y="-529" maskUnits="userSpaceOnUse" style="mask-type:luminance"><path fill="#fff" d="M-611.77-528.54H510.75v793.7H-611.77v-793.7Z"/></mask><g mask="url(#d)"><path fill="#003577" d="M192.75 71.83c-3-3.07-7.5-4.7-12.53-4.7-5.05 0-9.48 1.63-12.51 4.7-3.4 3.39-5.28 8.72-5.28 15 0 6.28 1.87 11.62 5.28 15 3.03 3.08 7.46 4.76 12.5 4.76 5.05 0 9.53-1.68 12.54-4.75 3.39-3.4 5.26-8.73 5.26-15 0-6.29-1.87-11.62-5.26-15.01Zm-5.31 25.9a9 9 0 0 1-7.22 3.3 8.93 8.93 0 0 1-7.19-3.3c-1.83-2.29-2.8-6.1-2.8-10.9 0-4.8.97-8.55 2.8-10.9 1.6-2.09 4.26-3.23 7.19-3.23 2.98 0 5.57 1.14 7.22 3.24 1.84 2.34 2.79 6.1 2.79 10.9 0 4.8-.94 8.6-2.8 10.88Z"/></g><mask id="e" width="1123" height="795" x="-612" y="-529" maskUnits="userSpaceOnUse" style="mask-type:luminance"><path fill="#fff" d="M-611.77-528.54H510.75v793.7H-611.77v-793.7Z"/></mask><g mask="url(#e)"><path fill="#003577" d="M59.85 105.69c-.43-.4-.95-1.3-.95-2.64v-13.7l12.77-21.4h-8.75c.63.64.7 1.64-.07 2.85l-6.92 11.98c-5.82-10.53-5.8-10.83-6.86-12.75-.82-1.44-1.52-2.07-3.07-2.07h-6.9c.55.5 1.11 1.26 2.3 3.22l10.18 18.08v13.79c0 1.34-.52 2.24-.96 2.64h9.23Z"/></g><mask id="f" width="1123" height="795" x="-612" y="-529" maskUnits="userSpaceOnUse" style="mask-type:luminance"><path fill="#fff" d="M-611.77-528.54H510.75v793.7H-611.77v-793.7Z"/></mask><g mask="url(#f)"><path fill="#003577" d="M125.22 105.69c.44-.4.96-1.3.96-2.64V70.59c0-1.34-.52-2.25-.96-2.63h12.5c6 0 11.22 2.89 11.22 8.5 0 2.38-1.1 5.75-3.86 7.23 3.36 1.28 6.92 4.39 6.92 9.65 0 3.9-1.93 7.32-4.54 9.29-2.4 1.82-5.19 3.06-9.74 3.06h-12.5Zm8.28-23.49c1.36.16 4.14-.02 5.34-.64 1.19-.62 2.56-1.54 2.56-3.91 0-2.27-1.98-4.27-4.87-4.27-1.08 0-1.98.06-3.03.4v8.42Zm8.18 17.13c2.16-1.39 2.66-3.41 2.66-5.53 0-4.14-3.63-6.04-7.14-6.04-.75 0-2.56.02-3.7.22v12.09c2.4.67 6.25.5 8.18-.74Z"/></g><mask id="g" width="1123" height="795" x="-612" y="-529" maskUnits="userSpaceOnUse" style="mask-type:luminance"><path fill="#fff" d="M-611.77-528.54H510.75v793.7H-611.77v-793.7Z"/></mask><g mask="url(#g)"><path fill="#003577" d="M6.21 103.05c0 1.34-.52 2.24-.95 2.64h9.22c-.43-.4-.95-1.3-.95-2.64V88.3l10.72 15.3c.99 1.44 1.76 2.08 3.3 2.08h7.4c-.6-.51-1.25-1.27-2.65-3.23L20.2 85.32l12.37-17.36h-9.1c.47.62.53 1.39-.35 2.87l-9.59 13.82V70.6c0-1.34.52-2.25.95-2.63H5.26c.43.38.95 1.29.95 2.63v32.46Z"/></g><mask id="h" width="1123" height="795" x="-612" y="-529" maskUnits="userSpaceOnUse" style="mask-type:luminance"><path fill="#fff" d="M-611.77-528.54H510.75v793.7H-611.77v-793.7Z"/></mask><g mask="url(#h)"><path fill="#46B035" d="M209.85 16.28c-3.44-3.48-9.13-2.88-12.5.68-4.36 4.58-7.75 6.3-11.8 6.12-5.64-.25-8.43-4.6-11.33-10.12C171.21 7.2 166.58 4 160.81 4c-9.08 0-14.52 7.35-14.52 15.55 0 12.62 8.86 20.16 15 23.35a36.72 36.72 0 0 0 15.83 3.88c-.3 3.02-1.19 7-2.17 9.82H185.34a46.46 46.46 0 0 1-2.2-10.15c15.21-1.97 22.44-8.89 26.4-15.47 1.78-2.88 2.72-5.88 2.71-8.57a8.42 8.42 0 0 0-2.4-6.13Zm-48.97 7.9a5.32 5.32 0 1 1-.69-10.62 5.32 5.32 0 0 1 .69 10.61Z"/></g><mask id="i" width="1123" height="795" x="-612" y="-529" maskUnits="userSpaceOnUse" style="mask-type:luminance"><path fill="#fff" d="M-611.77-528.54H510.75v793.7H-611.77v-793.7Z"/></mask><g mask="url(#i)"><path fill="#003577" d="M297.33 74.68h-4.93v30.62h4.93V89.56h4.03v-3.45h-4.03V74.68ZM323 102.94h-9.69v-5.06h9.7v5.06Zm-.55-8h-13.82v8.31c0 1.54.74 2.61 2.9 2.61h13.25c2.17 0 2.91-1.07 2.91-2.6v-8.33h-5.24Zm-2.36-10.17h-3.92v4.39H303.8v3.47h28.7v-3.47h-12.42v-4.39Zm-43.8-8.8h-1.9v18.78c0 1.65.73 2.8 2.88 2.8h11.41v-3.52h-9.09V79.5h9.09v-3.52h-12.39Zm81.78 29.42h4.46V74.7h-4.46v30.7Zm-5.97-20h-2.67c.3-1.8.39-3.74.52-6.03l.1-1.23c.11-1.74-1.03-2.22-1.97-2.22l-12.33.05.02 3.46 8.97-.04c.02 1.87-.12 3.55-.4 5.1l-8.55.03.01 3.46 7.6-.03c-1.41 3.81-3.94 6.87-7.5 10.16l2.17 2.46c2.44-1.7 6.79-4.7 9.8-10.37.24-.45.45-.9.63-1.35h3.6v16.56h4.36V74.67h-4.36V85.4Zm22.7 9.93c-2.22 0-3.19-3.97-3.19-8.61 0-4.65.97-8.62 3.2-8.62 2.21 0 3.2 3.97 3.2 8.62 0 4.64-.99 8.6-3.2 8.6Zm12.26-20.65v10.72h-4c-.36-5.8-3.48-10.1-8.26-10.1-5.13 0-8.26 4.97-8.26 11.42 0 6.44 3.13 11.42 8.26 11.42 4.55 0 7.51-3.91 8.17-9.3h4.09v16.56h4.9V74.67h-4.9ZM252.6 84.78h9.77v4.68h-9.77v-4.68Zm-2.18 7.65h14.14c2.04 0 2.74-1.13 2.74-2.74V75.64h-4.93v5.69h-9.77v-5.7h-4.92V89.7c0 1.61.7 2.74 2.74 2.74Zm67.8-11.26c1.93 2.47 6.4 5.07 10.42 6.25l1.7-2.15c-6.45-3-9.38-6.71-9.38-10.59H315.5c0 3.88-2.93 7.6-9.38 10.6l1.7 2.14c4.02-1.18 8.48-3.78 10.4-6.25ZM260.05 94.3h-4.92v5.9h-11.26v3.47h27.28v-3.46h-11.1v-5.9Zm-28.43-6.36h-4.41v12.27h-3.01V87.93h-4.42v12.27h-5.97v3.46h27.28v-3.46h-9.47V87.93Zm2.49 8.91h2.88a196.87 196.87 0 0 0 2.3-17.1c.24-2.5.25-3.81-2-3.81h-20.53v3.46h17.35v17.45Z"/></g><mask id="j" width="1123" height="795" x="-612" y="-529" maskUnits="userSpaceOnUse" style="mask-type:luminance"><path fill="#fff" d="M-611.77-528.54H510.75v793.7H-611.77v-793.7Z"/></mask><g mask="url(#j)"><path fill="#003577" d="M95.24 67.12c-5.04 0-9.48 1.64-12.48 4.7-3.43 3.4-5.32 8.73-5.32 15.01 0 6.29 1.89 11.62 5.32 15 3 3.08 7.44 4.76 12.48 4.76 5.05 0 9.54-1.68 12.54-4.75 3.37-3.4 5.26-8.72 5.26-15 0-6.29-1.89-11.62-5.26-15.01-3-3.07-7.5-4.7-12.54-4.7Zm7.23 30.6a9 9 0 0 1-7.23 3.3 8.88 8.88 0 0 1-7.17-3.3c-1.84-2.28-2.81-6.08-2.81-10.89 0-4.8.97-8.55 2.81-10.9 1.6-2.09 4.25-3.23 7.17-3.23 2.98 0 5.58 1.14 7.23 3.24 1.84 2.34 2.8 6.1 2.8 10.9 0 4.8-.96 8.6-2.8 10.88Z"/></g><mask id="k" width="1123" height="795" x="-612" y="-529" maskUnits="userSpaceOnUse" style="mask-type:luminance"><path fill="#fff" d="M-611.77-528.54H510.75v793.7H-611.77v-793.7Z"/></mask><g mask="url(#k)"><path fill="#003577" d="M192.75 71.83c-3-3.07-7.5-4.7-12.53-4.7-5.05 0-9.48 1.63-12.51 4.7-3.4 3.39-5.28 8.72-5.28 15 0 6.28 1.87 11.62 5.28 15 3.03 3.08 7.46 4.76 12.5 4.76 5.05 0 9.53-1.68 12.54-4.75 3.39-3.4 5.26-8.73 5.26-15 0-6.29-1.87-11.62-5.26-15.01Zm-5.31 25.9a9 9 0 0 1-7.22 3.3 8.93 8.93 0 0 1-7.19-3.3c-1.83-2.29-2.8-6.1-2.8-10.9 0-4.8.97-8.55 2.8-10.9 1.6-2.09 4.26-3.23 7.19-3.23 2.98 0 5.57 1.14 7.22 3.24 1.84 2.34 2.79 6.1 2.79 10.9 0 4.8-.94 8.6-2.8 10.88Z"/></g><mask id="l" width="1123" height="795" x="-612" y="-529" maskUnits="userSpaceOnUse" style="mask-type:luminance"><path fill="#fff" d="M-611.77-528.54H510.75v793.7H-611.77v-793.7Z"/></mask><g mask="url(#l)"><path fill="#003577" d="M59.85 105.69c-.43-.4-.95-1.3-.95-2.64v-13.7l12.77-21.4h-8.75c.63.64.7 1.64-.07 2.85l-6.92 11.98c-5.82-10.53-5.8-10.83-6.86-12.75-.82-1.44-1.52-2.07-3.07-2.07h-6.9c.55.5 1.11 1.26 2.3 3.22l10.18 18.08v13.79c0 1.34-.52 2.24-.96 2.64h9.23Z"/></g><mask id="m" width="1123" height="795" x="-612" y="-529" maskUnits="userSpaceOnUse" style="mask-type:luminance"><path fill="#fff" d="M-611.77-528.54H510.75v793.7H-611.77v-793.7Z"/></mask><g mask="url(#m)"><path fill="#003577" d="M125.22 105.69c.44-.4.96-1.3.96-2.64V70.59c0-1.34-.52-2.25-.96-2.63h12.5c6 0 11.22 2.89 11.22 8.5 0 2.38-1.1 5.75-3.86 7.23 3.36 1.28 6.92 4.39 6.92 9.65 0 3.9-1.93 7.32-4.54 9.29-2.4 1.82-5.19 3.06-9.74 3.06h-12.5Zm8.28-23.49c1.36.16 4.14-.02 5.34-.64 1.19-.62 2.56-1.54 2.56-3.91 0-2.27-1.98-4.27-4.87-4.27-1.08 0-1.98.06-3.03.4v8.42Zm8.18 17.13c2.16-1.39 2.66-3.41 2.66-5.53 0-4.14-3.63-6.04-7.14-6.04-.75 0-2.56.02-3.7.22v12.09c2.4.67 6.25.5 8.18-.74Z"/></g><mask id="n" width="1123" height="795" x="-612" y="-529" maskUnits="userSpaceOnUse" style="mask-type:luminance"><path fill="#fff" d="M-611.77-528.54H510.75v793.7H-611.77v-793.7Z"/></mask><g mask="url(#n)"><path fill="#003577" d="M6.21 103.05c0 1.34-.52 2.24-.95 2.64h9.22c-.43-.4-.95-1.3-.95-2.64V88.3l10.72 15.3c.99 1.44 1.76 2.08 3.3 2.08h7.4c-.6-.51-1.25-1.27-2.65-3.23L20.2 85.32l12.37-17.36h-9.1c.47.62.53 1.39-.35 2.87l-9.59 13.82V70.6c0-1.34.52-2.25.95-2.63H5.26c.43.38.95 1.29.95 2.63v32.46Z"/></g><mask id="o" width="1123" height="795" x="-612" y="-529" maskUnits="userSpaceOnUse" style="mask-type:luminance"><path fill="#fff" d="M-611.77-528.54H510.75v793.7H-611.77v-793.7Z"/></mask><g mask="url(#o)"><path fill="#46B035" d="M209.85 16.28c-3.44-3.48-9.13-2.88-12.5.68-4.36 4.58-7.75 6.3-11.8 6.12-5.64-.25-8.43-4.6-11.33-10.12C171.21 7.2 166.58 4 160.81 4c-9.08 0-14.52 7.35-14.52 15.55 0 12.62 8.86 20.16 15 23.35a36.72 36.72 0 0 0 15.83 3.88c-.3 3.02-1.19 7-2.17 9.82H185.34a46.46 46.46 0 0 1-2.2-10.15c15.21-1.97 22.44-8.89 26.4-15.47 1.78-2.88 2.72-5.88 2.71-8.57a8.42 8.42 0 0 0-2.4-6.13Zm-48.97 7.9a5.32 5.32 0 1 1-.69-10.62 5.32 5.32 0 0 1 .69 10.61Z"/></g></g><defs><clipPath id="a"><path fill="#fff" d="M0 0h394.1v108.14H0z"/></clipPath></defs></svg>